<svg id="visual" viewBox="0 0 1920 1080" width="1920" height="1080" xmlns="http://www.w3.org/2000/svg" xmlns:xlink="http://www.w3.org/1999/xlink" version="1.1"><rect x="0" y="0" width="1920" height="1080" fill="#001220"></rect><path d="M0 910L45.7 916.3C91.3 922.7 182.7 935.3 274.2 933.5C365.7 931.7 457.3 915.3 548.8 914.8C640.3 914.3 731.7 929.7 823 932C914.3 934.3 1005.7 923.7 1097 927.8C1188.3 932 1279.7 951 1371.2 950.2C1462.7 949.3 1554.3 928.7 1645.8 923.3C1737.3 918 1828.7 928 1874.3 933L1920 938L1920 1081L1874.3 1081C1828.7 1081 1737.3 1081 1645.8 1081C1554.3 1081 1462.7 1081 1371.2 1081C1279.7 1081 1188.3 1081 1097 1081C1005.7 1081 914.3 1081 823 1081C731.7 1081 640.3 1081 548.8 1081C457.3 1081 365.7 1081 274.2 1081C182.7 1081 91.3 1081 45.7 1081L0 1081Z" fill="#3d5afe"></path><path d="M0 953L45.7 949.8C91.3 946.7 182.7 940.3 274.2 943C365.7 945.7 457.3 957.3 548.8 959C640.3 960.7 731.7 952.3 823 949.8C914.3 947.3 1005.7 950.7 1097 956.2C1188.3 961.7 1279.7 969.3 1371.2 968.3C1462.7 967.3 1554.3 957.7 1645.8 954C1737.3 950.3 1828.7 952.7 1874.3 953.8L1920 955L1920 1081L1874.3 1081C1828.7 1081 1737.3 1081 1645.8 1081C1554.3 1081 1462.7 1081 1371.2 1081C1279.7 1081 1188.3 1081 1097 1081C1005.7 1081 914.3 1081 823 1081C731.7 1081 640.3 1081 548.8 1081C457.3 1081 365.7 1081 274.2 1081C182.7 1081 91.3 1081 45.7 1081L0 1081Z" fill="#5151ec"></path><path d="M0 974L45.7 977.3C91.3 980.7 182.7 987.3 274.2 993.5C365.7 999.7 457.3 1005.3 548.8 1007.7C640.3 1010 731.7 1009 823 1007.2C914.3 1005.3 1005.7 1002.7 1097 997.3C1188.3 992 1279.7 984 1371.2 978.7C1462.7 973.3 1554.3 970.7 1645.8 975.5C1737.3 980.3 1828.7 992.7 1874.3 998.8L1920 1005L1920 1081L1874.3 1081C1828.7 1081 1737.3 1081 1645.8 1081C1554.3 1081 1462.7 1081 1371.2 1081C1279.7 1081 1188.3 1081 1097 1081C1005.7 1081 914.3 1081 823 1081C731.7 1081 640.3 1081 548.8 1081C457.3 1081 365.7 1081 274.2 1081C182.7 1081 91.3 1081 45.7 1081L0 1081Z" fill="#5d49da"></path><path d="M0 997L45.7 997.7C91.3 998.3 182.7 999.7 274.2 1003.8C365.7 1008 457.3 1015 548.8 1014.5C640.3 1014 731.7 1006 823 1006.3C914.3 1006.7 1005.7 1015.3 1097 1019C1188.3 1022.7 1279.7 1021.3 1371.2 1019.7C1462.7 1018 1554.3 1016 1645.8 1012.2C1737.3 1008.3 1828.7 1002.7 1874.3 999.8L1920 997L1920 1081L1874.3 1081C1828.7 1081 1737.3 1081 1645.8 1081C1554.3 1081 1462.7 1081 1371.2 1081C1279.7 1081 1188.3 1081 1097 1081C1005.7 1081 914.3 1081 823 1081C731.7 1081 640.3 1081 548.8 1081C457.3 1081 365.7 1081 274.2 1081C182.7 1081 91.3 1081 45.7 1081L0 1081Z" fill="#6441c8"></path><path d="M0 1041L45.7 1042.5C91.3 1044 182.7 1047 274.2 1047.8C365.7 1048.7 457.3 1047.3 548.8 1044.2C640.3 1041 731.7 1036 823 1033C914.3 1030 1005.7 1029 1097 1030.8C1188.3 1032.7 1279.7 1037.3 1371.2 1039.7C1462.7 1042 1554.3 1042 1645.8 1043.2C1737.3 1044.3 1828.7 1046.7 1874.3 1047.8L1920 1049L1920 1081L1874.3 1081C1828.7 1081 1737.3 1081 1645.8 1081C1554.3 1081 1462.7 1081 1371.2 1081C1279.7 1081 1188.3 1081 1097 1081C1005.7 1081 914.3 1081 823 1081C731.7 1081 640.3 1081 548.8 1081C457.3 1081 365.7 1081 274.2 1081C182.7 1081 91.3 1081 45.7 1081L0 1081Z" fill="#673ab7"></path></svg>